<svg width="14" height="20" viewBox="0 0 14 20" fill="none" xmlns="http://www.w3.org/2000/svg">
<path d="M13.461 6.98051C13.461 7.99563 13.2283 8.95466 12.8132 9.80994C11.7617 11.972 6.98051 18.66 6.98051 18.66C6.98051 18.66 2.31151 12.0477 1.2319 9.97539C0.763595 9.08085 0.5 8.06293 0.5 6.98051C0.5 3.40235 3.40235 0.5 6.98051 0.5C10.5587 0.5 13.461 3.40235 13.461 6.98051Z" stroke="#30C983" stroke-miterlimit="10" stroke-linecap="square"/>
<path d="M9.55066 7.58998C9.88722 6.17048 9.00933 4.74691 7.58983 4.41034C6.17033 4.07378 4.74675 4.95167 4.41019 6.37117C4.07362 7.79067 4.95151 9.21425 6.37102 9.55081C7.79052 9.88738 9.21409 9.00949 9.55066 7.58998Z" stroke="#30C983" stroke-miterlimit="10" stroke-linecap="square"/>
</svg>
