<svg width="86" height="72" viewBox="0 0 86 72" fill="none" xmlns="http://www.w3.org/2000/svg">
<path d="M69.6489 1H34.6629C29.5455 1 20.101 5.24529 20.101 11.2941V15.4118C20.1004 16.6896 20.5001 17.9361 21.2453 18.9797C21.9905 20.0232 23.0443 20.8123 24.2616 21.2382V42.1765H19.7224C14.7586 42.1819 9.9997 44.1359 6.48975 47.6096C2.97981 51.0834 1.00551 55.7933 1 60.7059C1 63.4361 2.09585 66.0544 4.04648 67.9849C5.99712 69.9154 8.64274 71 11.4013 71H48.8462C51.2433 70.9995 53.5667 70.1797 55.4234 68.679C57.28 67.1784 58.5559 65.0892 59.0354 62.7647H77.8452C78.3969 62.7647 78.926 62.5478 79.3161 62.1617C79.7063 61.7756 79.9254 61.2519 79.9254 60.7059V21.2794C81.1728 20.8721 82.2584 20.0857 83.0279 19.0322C83.7973 17.9786 84.2113 16.7117 84.2108 15.4118V11.2941C84.2108 5.01059 74.6415 1 69.6489 1ZM26.3418 17.4706C25.7901 17.4706 25.261 17.2537 24.8709 16.8676C24.4807 16.4815 24.2616 15.9578 24.2616 15.4118V11.2941C24.2616 8.71235 29.9116 5.75176 33.5937 5.22471C32.5971 5.91882 31.7689 6.82341 31.1688 7.87307C30.5687 8.92273 30.2118 10.0912 30.1238 11.2941V15.4118C30.1231 16.6896 30.5229 17.9361 31.268 18.9797C32.0132 20.0232 33.067 20.8123 34.2843 21.2382V42.1765H28.4221V19.5294C28.4221 18.9834 28.2029 18.4597 27.8128 18.0736C27.4227 17.6875 26.8936 17.4706 26.3418 17.4706ZM48.8462 66.8824H11.4013C9.74618 66.8824 8.15881 66.2316 6.98843 65.0733C5.81805 63.915 5.16054 62.344 5.16054 60.7059C5.16742 57.4615 6.2802 54.3144 8.31882 51.7737C10.3574 49.233 13.2026 47.4474 16.394 46.7059C13.893 49.3741 12.1679 52.6622 11.4013 56.2218C11.3029 56.7573 11.4227 57.3096 11.7345 57.7579C12.0464 58.2062 12.525 58.5141 13.0656 58.6141C13.189 58.6372 13.3144 58.6482 13.44 58.6471C13.9268 58.6461 14.3978 58.4762 14.7711 58.167C15.1443 57.8577 15.3962 57.4288 15.4828 56.9547C16.6509 52.6726 19.2587 48.9124 22.8761 46.2941H29.0712C26.3837 49.0435 24.5274 52.4824 23.7124 56.2218C23.6139 56.7573 23.7337 57.3096 24.0456 57.7579C24.3575 58.2062 24.836 58.5141 25.3766 58.6141C25.5 58.6372 25.6254 58.6482 25.751 58.6471C26.2378 58.6461 26.7088 58.4762 27.0821 58.167C27.4554 57.8577 27.7072 57.4288 27.7939 56.9547C28.9608 52.6732 31.5671 48.913 35.183 46.2941H40.5251C40.7997 46.2941 41.0535 46.36 41.324 46.3724C38.6611 49.1009 36.8235 52.5128 36.0193 56.2218C35.9208 56.7573 36.0406 57.3096 36.3525 57.7579C36.6643 58.2062 37.1429 58.5141 37.6835 58.6141C37.811 58.6377 37.9406 58.6487 38.0704 58.6471C38.5572 58.6461 39.0282 58.4762 39.4015 58.167C39.7747 57.8577 40.0266 57.4288 40.1132 56.9547C41.0357 53.315 43.0697 50.0453 45.938 47.5912C45.9912 47.5288 46.0398 47.4627 46.0836 47.3935C48.7467 48.482 51.0237 50.3279 52.6264 52.6976C54.229 55.0673 55.0854 57.8543 55.087 60.7059C55.087 62.344 54.4295 63.915 53.2591 65.0733C52.0887 66.2316 50.5014 66.8824 48.8462 66.8824ZM80.0503 15.4118C80.0461 15.6915 79.9852 15.9675 79.8714 16.2235C79.7575 16.4796 79.5929 16.7104 79.3873 16.9023C79.1817 17.0943 78.9393 17.2435 78.6744 17.3411C78.4095 17.4387 78.1275 17.4827 77.8452 17.4706C77.2934 17.4706 76.7643 17.6875 76.3742 18.0736C75.9841 18.4597 75.7649 18.9834 75.7649 19.5294V58.6471H59.0354C58.5343 54.1302 56.3701 49.9542 52.9558 46.9161C49.5416 43.8781 45.1164 42.1908 40.5251 42.1765H38.4449V19.5294C38.4449 18.9834 38.2257 18.4597 37.8356 18.0736C37.4454 17.6875 36.9163 17.4706 36.3646 17.4706C35.8129 17.4706 35.2837 17.2537 34.8936 16.8676C34.5035 16.4815 34.2843 15.9578 34.2843 15.4118V11.2941C34.2843 8.45294 41.1575 5.11765 44.6857 5.11765H69.6489C73.7554 5.11765 80.0503 8.41177 80.0503 11.2941V15.4118Z" fill="#30C983" stroke="white" stroke-width="2"/>
<path d="M61.3287 9.23535H57.1682C56.6164 9.23535 56.0873 9.45226 55.6972 9.83837C55.3071 10.2245 55.0879 10.7481 55.0879 11.2942C55.0879 11.8402 55.3071 12.3639 55.6972 12.75C56.0873 13.1361 56.6164 13.353 57.1682 13.353H61.3287C61.8804 13.353 62.4095 13.1361 62.7997 12.75C63.1898 12.3639 63.409 11.8402 63.409 11.2942C63.409 10.7481 63.1898 10.2245 62.7997 9.83837C62.4095 9.45226 61.8804 9.23535 61.3287 9.23535Z" fill="#30C983" stroke="white" stroke-width="2"/>
<path d="M69.649 17.4706H65.4885C64.9368 17.4706 64.4076 17.6875 64.0175 18.0736C63.6274 18.4597 63.4082 18.9834 63.4082 19.5294C63.4082 20.0754 63.6274 20.5991 64.0175 20.9852C64.4076 21.3713 64.9368 21.5882 65.4885 21.5882H69.649C70.2007 21.5882 70.7299 21.3713 71.12 20.9852C71.5101 20.5991 71.7293 20.0754 71.7293 19.5294C71.7293 18.9834 71.5101 18.4597 71.12 18.0736C70.7299 17.6875 70.2007 17.4706 69.649 17.4706Z" fill="#30C983" stroke="white" stroke-width="2"/>
<path d="M53.7936 17.6353C53.2883 17.4305 52.722 17.4305 52.2167 17.6353C51.9554 17.722 51.7235 17.8788 51.5469 18.0882C51.3511 18.2749 51.1953 18.4988 51.0889 18.7464C50.9826 18.994 50.9277 19.2603 50.9277 19.5294C50.9277 19.7985 50.9826 20.0648 51.0889 20.3124C51.1953 20.56 51.3511 20.7839 51.5469 20.9706C51.7235 21.18 51.9554 21.3368 52.2167 21.4235C52.4629 21.5409 52.7341 21.5974 53.0072 21.5882C53.2786 21.5936 53.5476 21.5373 53.7936 21.4235C54.0554 21.3378 54.2875 21.1808 54.4634 20.9706C54.6608 20.7848 54.818 20.5612 54.9253 20.3135C55.0327 20.0658 55.0881 19.799 55.0881 19.5294C55.0881 19.2598 55.0327 18.9931 54.9253 18.7453C54.818 18.4976 54.6608 18.274 54.4634 18.0882C54.2875 17.878 54.0554 17.721 53.7936 17.6353Z" fill="#30C983" stroke="white" stroke-width="2"/>
</svg>
