<svg width="62" height="72" viewBox="0 0 62 72" fill="none" xmlns="http://www.w3.org/2000/svg">
<path d="M54.9953 18.4742C54.0408 17.8104 53.1417 17.0712 52.3066 16.2637C51.0994 15.1284 50.2567 13.6632 49.8846 12.0526H50.9956C51.4867 12.0526 51.9577 11.8586 52.3049 11.5131C52.6522 11.1676 52.8473 10.6991 52.8473 10.2105V2.84211C52.8473 2.35355 52.6522 1.885 52.3049 1.53954C51.9577 1.19408 51.4867 1 50.9956 1H39.8854C39.3943 1 38.9233 1.19408 38.576 1.53954C38.2288 1.885 38.0337 2.35355 38.0337 2.84211V10.2105C38.0337 10.6991 38.2288 11.1676 38.576 11.5131C38.9233 11.8586 39.3943 12.0526 39.8854 12.0526H40.9964C40.6211 13.6694 39.7717 15.1389 38.5559 16.2747C37.7208 17.0822 36.8217 17.8215 35.8672 18.4853C34.1119 19.5031 32.6859 20.9992 31.7574 22.797C30.8289 24.5948 30.4366 26.6193 30.6269 28.6316V65.4737C30.6269 66.9394 31.2122 68.345 32.2539 69.3814C33.2957 70.4178 34.7087 71 36.182 71C38.5776 70.8077 40.8748 69.9682 42.8259 68.5721C43.6196 68.0091 44.5037 67.5843 45.4405 67.3158C46.3772 67.5843 47.2613 68.0091 48.0551 68.5721C50.0061 69.9682 52.3034 70.8077 54.699 71C56.1723 71 57.5852 70.4178 58.627 69.3814C59.6688 68.345 60.2541 66.9394 60.2541 65.4737V28.6316C60.4448 26.6156 60.0508 24.5875 59.1188 22.7873C58.1868 20.9872 56.7558 19.4904 54.9953 18.4742ZM34.3303 30.4737H56.5507V45.2621H34.3303V30.4737ZM41.7371 4.68421H49.1439V8.36842H41.7371V4.68421ZM38.0744 21.4474C39.183 20.6725 40.227 19.8101 41.1964 18.8684C43.1161 17.0573 44.3682 14.6568 44.7517 12.0526H46.1293C46.5096 14.6621 47.7619 17.0682 49.6846 18.8832C50.6539 19.8248 51.698 20.6873 52.8065 21.4621C53.8115 21.9772 54.6705 22.7348 55.3052 23.6654C55.9399 24.5961 56.3299 25.6702 56.4396 26.7895H34.4414C34.5487 25.6676 34.9376 24.5905 35.5724 23.657C36.2072 22.7236 37.0675 21.9638 38.0744 21.4474ZM54.699 67.3158C52.9829 67.0947 51.3522 66.4403 49.9623 65.4147C48.6399 64.4333 47.0797 63.8181 45.4405 63.6316C43.8013 63.8181 42.2411 64.4333 40.9186 65.4147C39.5288 66.4403 37.8981 67.0947 36.182 67.3158C35.6909 67.3158 35.2199 67.1217 34.8726 66.7763C34.5254 66.4308 34.3303 65.9622 34.3303 65.4737V48.9463H56.5507V65.4737C56.5507 65.9622 56.3556 66.4308 56.0083 66.7763C55.6611 67.1217 55.1901 67.3158 54.699 67.3158Z" fill="#30C983" stroke="white" stroke-width="2"/>
<path d="M25.0721 26.7895H12.1102V22.2321L22.039 15.4126C22.2394 15.2752 22.4106 15.0999 22.5428 14.8967C22.6751 14.6934 22.7658 14.4663 22.8099 14.2282C22.8539 13.9901 22.8503 13.7457 22.7994 13.5089C22.7485 13.2722 22.6512 13.0477 22.513 12.8484C22.3749 12.6491 22.1987 12.4788 21.9944 12.3472C21.7901 12.2156 21.5618 12.1253 21.3224 12.0816C21.0831 12.0378 20.8374 12.0413 20.5994 12.092C20.3615 12.1426 20.1359 12.2394 19.9355 12.3768L9.19562 19.7453C8.95067 19.9161 8.75097 20.1434 8.61359 20.4077C8.47622 20.6721 8.40526 20.9656 8.4068 21.2631V26.7895H2.8517C2.3606 26.7895 1.88961 26.9835 1.54235 27.329C1.19509 27.6745 1 28.143 1 28.6316V69.1579C1 69.6464 1.19509 70.115 1.54235 70.4604C1.88961 70.8059 2.3606 71 2.8517 71H25.0721C25.5632 71 26.0342 70.8059 26.3814 70.4604C26.7287 70.115 26.9238 69.6464 26.9238 69.1579V28.6316C26.9238 28.143 26.7287 27.6745 26.3814 27.329C26.0342 26.9835 25.5632 26.7895 25.0721 26.7895ZM4.7034 38.9805L23.2204 48.191V62.4931L4.7034 53.2826V38.9805ZM4.7034 30.4737H23.2204V44.0721L4.7034 34.8616V30.4737ZM23.2204 67.3158H4.7034V57.4016L23.2204 66.6121V67.3158Z" fill="#30C983" stroke="white" stroke-width="2"/>
<path d="M50.9951 34.158H39.8849C39.3938 34.158 38.9228 34.352 38.5756 34.6975C38.2283 35.043 38.0332 35.5115 38.0332 36.0001C38.0332 36.4886 38.2283 36.9572 38.5756 37.3026C38.9228 37.6481 39.3938 37.8422 39.8849 37.8422H50.9951C51.4862 37.8422 51.9572 37.6481 52.3045 37.3026C52.6517 36.9572 52.8468 36.4886 52.8468 36.0001C52.8468 35.5115 52.6517 35.043 52.3045 34.6975C51.9572 34.352 51.4862 34.158 50.9951 34.158Z" fill="#30C983" stroke="white" stroke-width="2"/>
</svg>
