<svg width="73" height="72" viewBox="0 0 73 72" fill="none" xmlns="http://www.w3.org/2000/svg">
<path d="M71.0457 38.5793C71.0385 37.0441 70.9461 35.5104 70.769 33.9853C70.7159 33.5596 70.5082 33.1682 70.1854 32.8854C69.8627 32.6027 69.4473 32.4484 69.0183 32.4517H67.5441V23.6978C67.535 21.874 66.9564 20.0986 65.8892 18.6196C64.822 17.1406 63.3195 16.0318 61.5915 15.4482L65.7934 8.87937C65.9915 8.56889 66.0866 8.20383 66.0653 7.83615C66.0439 7.46847 65.9072 7.11688 65.6744 6.83142C65.4417 6.54595 65.1249 6.34115 64.7691 6.24614C64.4132 6.15114 64.0365 6.17077 63.6925 6.30225L55.8245 9.27505L51.5597 1.82029C51.3935 1.56819 51.1673 1.36128 50.9015 1.21811C50.6357 1.07494 50.3384 1 50.0365 1C49.7346 1 49.4373 1.07494 49.1715 1.21811C48.9056 1.36128 48.6795 1.56819 48.5133 1.82029L44.2625 9.27505L36.3805 6.30225C36.0365 6.17077 35.6598 6.15114 35.3039 6.24614C34.9481 6.34115 34.6313 6.54595 34.3985 6.83142C34.1658 7.11688 34.0291 7.46847 34.0077 7.83615C33.9864 8.20383 34.0815 8.56889 34.2796 8.87937L38.4814 15.4482C36.8008 16.0168 35.3334 17.0841 34.2749 18.508C33.2164 19.9318 32.6171 21.6445 32.5569 23.4177V23.5088C32.5569 23.5718 32.5394 23.6313 32.5394 23.6978V32.4517H8.28076C7.85171 32.4484 7.43637 32.6027 7.11363 32.8854C6.79088 33.1682 6.58319 33.5596 6.53 33.9853C6.35759 35.5106 6.26992 37.0443 6.26738 38.5793C6.28413 40.5181 6.47279 42.4515 6.83113 44.3569C5.02759 45.0701 3.4948 46.3338 2.45067 47.9682C1.40654 49.6026 0.904207 51.5246 1.01509 53.4608C1.01509 59.0038 3.48717 69.8235 9.44677 70.937C9.65907 70.9782 9.87479 70.9993 10.0911 71C11.1259 70.924 12.123 70.5788 12.9833 69.9986C13.5892 69.5769 14.2886 69.3089 15.0212 69.2177C15.7421 69.333 16.4312 69.5965 17.0451 69.9916C18.0766 70.6839 19.3064 71.0196 20.5466 70.9475C21.4675 70.7722 22.3442 70.4153 23.1257 69.8977C23.9072 69.3801 24.5779 68.7121 25.0986 67.9327C29.3457 69.9116 33.971 70.9473 38.6565 70.9685C39.3568 70.9685 40.0571 70.9055 40.7574 70.8634C40.9263 70.9245 41.1033 70.9599 41.2827 70.9685H58.7903C61.112 70.9685 63.3385 70.0462 64.9802 68.4045C66.6219 66.7629 67.5441 64.5363 67.5441 62.2147V53.1492C69.8417 48.6358 71.0414 43.6439 71.0457 38.5793ZM64.0426 23.6978V27.504L49.8579 18.4455H58.7903C60.1833 18.4455 61.5192 18.9989 62.5042 19.9839C63.4892 20.9689 64.0426 22.3048 64.0426 23.6978ZM44.434 13.0812C44.8244 13.2295 45.2549 13.2333 45.6479 13.092C46.0408 12.9508 46.3703 12.6737 46.577 12.3109L50.0365 6.22171L53.51 12.3109C53.7166 12.6737 54.0462 12.9508 54.4391 13.092C54.8321 13.2333 55.2626 13.2295 55.6529 13.0812L60.0053 11.4425L57.7749 14.944H42.2981L40.0676 11.4425L44.434 13.0812ZM41.2827 18.4455H43.3486L64.0426 31.6603V32.4517H52.2705L36.1249 22.7629C36.3437 21.5536 36.9796 20.4592 37.922 19.6703C38.8644 18.8814 40.0537 18.448 41.2827 18.4455ZM36.0304 26.7897L45.4845 32.4517H36.0304V26.7897ZM20.0319 67.4845C19.5558 67.3485 19.1001 67.1495 18.6768 66.8927C17.5737 66.2055 16.318 65.8014 15.0212 65.7162C13.6833 65.7809 12.3877 66.2055 11.2711 66.9452C10.905 67.1798 10.5094 67.3647 10.0946 67.495C6.91166 66.8997 4.51662 58.5696 4.51662 53.4608C4.51662 50.6981 5.51806 47.1581 12.9658 46.5733C12.968 47.8036 13.0852 49.031 13.316 50.2394C13.4019 50.6279 13.6176 50.9756 13.9276 51.2251C14.2376 51.4746 14.6233 51.6111 15.0212 51.612C15.1461 51.6119 15.2706 51.5978 15.3924 51.57C15.8452 51.4718 16.2406 51.1981 16.4919 50.8089C16.7433 50.4197 16.8302 49.9467 16.7335 49.4936C16.5629 48.5177 16.4762 47.529 16.4743 46.5383C24.4753 46.955 25.5258 50.6281 25.5258 53.4608C25.5258 58.9512 23.4249 66.9452 20.0319 67.4845ZM26.8038 64.8723C27.2581 63.7855 27.6315 62.6667 27.9208 61.5249C31.5662 63.2545 35.5726 64.0864 39.6051 63.951C43.6377 63.8155 47.5793 62.7167 51.1004 60.7464C54.6214 58.7761 57.6197 55.9915 59.8444 52.6255C62.0692 49.2594 63.4559 45.4097 63.8885 41.3981C63.9153 41.169 63.8966 40.9369 63.8334 40.715C63.7702 40.4932 63.6638 40.286 63.5204 40.1055C63.3769 39.9249 63.1991 39.7744 62.9973 39.6627C62.7955 39.5511 62.5736 39.4804 62.3444 39.4547C62.1149 39.425 61.8819 39.4418 61.6591 39.5042C61.4363 39.5665 61.2284 39.6731 61.0476 39.8175C60.8669 39.9619 60.7172 40.1413 60.6073 40.3449C60.4974 40.5484 60.4296 40.7721 60.408 41.0024C60.0252 44.5316 58.7873 47.9141 56.8017 50.8567C54.8161 53.7993 52.1426 56.2131 49.0132 57.8889C45.8838 59.5647 42.3928 60.4518 38.843 60.4734C35.2932 60.495 31.7917 59.6504 28.6422 58.0128C28.8786 56.5066 29.0074 54.9854 29.0273 53.4608C29.0273 48.9299 26.8424 43.5795 16.814 43.0123C16.9532 42.2965 17.1523 41.5937 17.4092 40.9114C17.5675 40.4807 17.5505 40.0052 17.3617 39.587C17.1729 39.1688 16.8275 38.8414 16.3999 38.6753C15.9722 38.5092 15.4964 38.5176 15.0748 38.6987C14.6533 38.8799 14.3197 39.2192 14.1458 39.6438C13.7339 40.7344 13.4347 41.8643 13.2529 43.0158C12.2334 43.0677 11.2182 43.1847 10.2136 43.3659C9.93248 41.7855 9.78374 40.1845 9.76891 38.5793C9.76891 37.8055 9.81093 36.8461 9.87046 35.9532H67.4426C67.5021 36.8461 67.5441 37.8055 67.5441 38.5793C67.5602 43.4082 66.3615 48.1635 64.0584 52.4077C61.7553 56.652 58.4217 60.2488 54.3645 62.8673C50.3072 65.4858 45.6565 67.0418 40.8404 67.3922C36.0243 67.7425 31.1974 66.876 26.8038 64.8723ZM64.0426 62.2147C64.0426 63.6077 63.4892 64.9436 62.5042 65.9286C61.5192 66.9136 60.1833 67.467 58.7903 67.467H53.2264C57.4287 65.3398 61.1191 62.3256 64.0426 58.6326V62.2147Z" fill="#30C983" stroke="white" stroke-width="2"/>
<path d="M51.7879 39.4547C51.3235 39.4547 50.8782 39.6392 50.5499 39.9675C50.2216 40.2958 50.0371 40.7411 50.0371 41.2055V44.707C50.0371 45.1713 50.2216 45.6167 50.5499 45.945C50.8782 46.2733 51.3235 46.4578 51.7879 46.4578C52.2522 46.4578 52.6975 46.2733 53.0259 45.945C53.3542 45.6167 53.5386 45.1713 53.5386 44.707V41.2055C53.5386 40.7411 53.3542 40.2958 53.0259 39.9675C52.6975 39.6392 52.2522 39.4547 51.7879 39.4547Z" fill="#30C983" stroke="white" stroke-width="2"/>
<path d="M30.7781 39.4547C30.3138 39.4547 29.8685 39.6392 29.5401 39.9675C29.2118 40.2958 29.0273 40.7411 29.0273 41.2055V44.707C29.0273 45.1713 29.2118 45.6167 29.5401 45.945C29.8685 46.2733 30.3138 46.4578 30.7781 46.4578C31.2424 46.4578 31.6878 46.2733 32.0161 45.945C32.3444 45.6167 32.5289 45.1713 32.5289 44.707V41.2055C32.5289 40.7411 32.3444 40.2958 32.0161 39.9675C31.6878 39.6392 31.2424 39.4547 30.7781 39.4547Z" fill="#30C983" stroke="white" stroke-width="2"/>
<path d="M41.282 42.9563C40.8177 42.9563 40.3724 43.1408 40.044 43.4691C39.7157 43.7974 39.5312 44.2427 39.5312 44.7071V48.2086C39.5312 48.6729 39.7157 49.1182 40.044 49.4466C40.3724 49.7749 40.8177 49.9594 41.282 49.9594C41.7463 49.9594 42.1917 49.7749 42.52 49.4466C42.8483 49.1182 43.0328 48.6729 43.0328 48.2086V44.7071C43.0328 44.2427 42.8483 43.7974 42.52 43.4691C42.1917 43.1408 41.7463 42.9563 41.282 42.9563Z" fill="#30C983" stroke="white" stroke-width="2"/>
</svg>
