<svg width="76" height="72" viewBox="0 0 76 72" fill="none" xmlns="http://www.w3.org/2000/svg">
<path d="M18.4991 39.8889H34.0547C34.5704 39.8889 35.065 39.684 35.4296 39.3194C35.7943 38.9547 35.9991 38.4601 35.9991 37.9444C35.9991 37.4287 35.7943 36.9342 35.4296 36.5695C35.065 36.2049 34.5704 36 34.0547 36H18.4991C17.9834 36 17.4889 36.2049 17.1242 36.5695C16.7595 36.9342 16.5547 37.4287 16.5547 37.9444C16.5547 38.4601 16.7595 38.9547 17.1242 39.3194C17.4889 39.684 17.9834 39.8889 18.4991 39.8889Z" fill="#30C983" stroke="white" stroke-width="2"/>
<path d="M18.4991 47.6667H34.0547C34.5704 47.6667 35.065 47.4619 35.4296 47.0972C35.7943 46.7326 35.9991 46.238 35.9991 45.7223C35.9991 45.2066 35.7943 44.712 35.4296 44.3473C35.065 43.9827 34.5704 43.7778 34.0547 43.7778H18.4991C17.9834 43.7778 17.4889 43.9827 17.1242 44.3473C16.7595 44.712 16.5547 45.2066 16.5547 45.7223C16.5547 46.238 16.7595 46.7326 17.1242 47.0972C17.4889 47.4619 17.9834 47.6667 18.4991 47.6667Z" fill="#30C983" stroke="white" stroke-width="2"/>
<path d="M71 56.5255V18.5C71 17.9843 70.7952 17.4897 70.4305 17.1251C70.0659 16.7604 69.5713 16.5556 69.0556 16.5556H44.0462C43.5636 16.5625 43.1009 16.7487 42.748 17.0779C42.3951 17.4071 42.1772 17.8558 42.1367 18.3367L39.8034 16.5556H41.8334C42.3491 16.5556 42.8437 16.3507 43.2083 15.986C43.573 15.6214 43.7778 15.1268 43.7778 14.6111V2.94444C43.7778 2.42875 43.573 1.93417 43.2083 1.56951C42.8437 1.20486 42.3491 1 41.8334 1H6.8334C6.3177 1 5.82312 1.20486 5.45847 1.56951C5.09381 1.93417 4.88895 2.42875 4.88895 2.94444V14.6111C4.88895 15.1268 5.09381 15.6214 5.45847 15.986C5.82312 16.3507 6.3177 16.5556 6.8334 16.5556H8.8984L6.37451 18.5C4.75532 19.302 3.39342 20.5419 2.44342 22.079C1.49342 23.616 0.993379 25.3886 1.00007 27.1955V61.2778C1.00007 63.8563 2.02437 66.3291 3.84764 68.1524C5.67091 69.9757 8.14379 71 10.7223 71H53.5C53.7226 70.994 53.9424 70.9493 54.1495 70.8678C54.5765 70.9493 55.0098 70.9935 55.4445 71H67.1112C68.8206 71.0043 70.4836 70.4436 71.8414 69.4051C73.1993 68.3666 74.1759 66.9085 74.6194 65.2576C75.063 63.6067 74.9486 61.8555 74.294 60.2763C73.6395 58.6972 72.4815 57.3786 71 56.5255ZM67.1112 55.4444H55.4445C53.3817 55.4444 51.4034 56.2639 49.9448 57.7225C48.4862 59.1811 47.6667 61.1594 47.6667 63.2222C47.6745 64.5916 48.0477 65.9341 48.7478 67.1111H45.6717C46.9593 65.4385 47.6604 63.3885 47.6667 61.2778V27.1955C47.6613 24.6676 46.6626 22.243 44.8862 20.4444H67.1112V55.4444ZM43.7778 55.4444H12.6667V32.1111H43.7778V55.4444ZM16.5556 12.6667V4.88889H22.3889V12.6667H16.5556ZM26.2778 4.88889H32.1112V12.6667H26.2778V4.88889ZM39.8889 12.6667H36.0001V4.88889H39.8889V12.6667ZM8.77784 4.88889H12.6667V12.6667H8.77784V4.88889ZM4.88895 61.2778V27.1955C4.90488 26.0515 5.24564 24.9356 5.87152 23.9779C6.49739 23.0201 7.3826 22.26 8.42395 21.7861L15.2684 16.5556H33.3984L40.2428 21.7861C40.3413 21.859 40.4453 21.924 40.5539 21.9806C41.5255 22.461 42.3428 23.2044 42.9127 24.1264C43.4826 25.0483 43.7824 26.1117 43.7778 27.1955V28.2222H10.7223C10.2066 28.2222 9.71201 28.4271 9.34736 28.7917C8.9827 29.1564 8.77784 29.651 8.77784 30.1667V57.3889C8.77784 57.9046 8.9827 58.3991 9.34736 58.7638C9.71201 59.1285 10.2066 59.3333 10.7223 59.3333H43.7778V61.2778C43.7778 62.8249 43.1632 64.3086 42.0693 65.4025C40.9753 66.4965 39.4916 67.1111 37.9445 67.1111H10.7223C9.17519 67.1111 7.69146 66.4965 6.5975 65.4025C5.50353 64.3086 4.88895 62.8249 4.88895 61.2778ZM51.5556 63.2222C51.5556 62.1908 51.9653 61.2016 52.6946 60.4723C53.4239 59.743 54.4131 59.3333 55.4445 59.3333H59.3334V67.1111H55.4445C54.4131 67.1111 53.4239 66.7014 52.6946 65.9721C51.9653 65.2428 51.5556 64.2536 51.5556 63.2222ZM67.1112 67.1111H63.2223V59.3333H67.1112C68.1426 59.3333 69.1317 59.743 69.861 60.4723C70.5903 61.2016 71 62.1908 71 63.2222C71 64.2536 70.5903 65.2428 69.861 65.9721C69.1317 66.7014 68.1426 67.1111 67.1112 67.1111Z" fill="#30C983" stroke="white" stroke-width="2"/>
<path d="M57.388 36C58.5417 36 59.6696 35.6579 60.6288 35.0169C61.5881 34.376 62.3358 33.4649 62.7773 32.399C63.2188 31.3331 63.3343 30.1602 63.1093 29.0287C62.8842 27.8971 62.3286 26.8577 61.5128 26.0419C60.697 25.2261 59.6576 24.6705 58.526 24.4455C57.3945 24.2204 56.2216 24.3359 55.1557 24.7774C54.0898 25.2189 53.1788 25.9666 52.5378 26.9259C51.8968 27.8852 51.5547 29.013 51.5547 30.1667C51.5547 31.7138 52.1693 33.1975 53.2632 34.2915C54.3572 35.3855 55.8409 36 57.388 36ZM57.388 28.2223C57.7726 28.2223 58.1485 28.3363 58.4683 28.55C58.7881 28.7636 59.0373 29.0673 59.1844 29.4226C59.3316 29.7779 59.3701 30.1689 59.2951 30.5461C59.2201 30.9232 59.0349 31.2697 58.7629 31.5416C58.491 31.8136 58.1445 31.9988 57.7674 32.0738C57.3902 32.1488 56.9992 32.1103 56.6439 31.9631C56.2886 31.816 55.9849 31.5667 55.7713 31.247C55.5576 30.9272 55.4436 30.5513 55.4436 30.1667C55.4436 29.651 55.6484 29.1564 56.0131 28.7918C56.3777 28.4271 56.8723 28.2223 57.388 28.2223Z" fill="#30C983" stroke="white" stroke-width="2"/>
<path d="M57.388 51.5556C58.5417 51.5556 59.6696 51.2135 60.6288 50.5725C61.5881 49.9315 62.3358 49.0205 62.7773 47.9546C63.2188 46.8887 63.3343 45.7158 63.1093 44.5842C62.8842 43.4527 62.3286 42.4133 61.5128 41.5975C60.697 40.7817 59.6576 40.2261 58.526 40.001C57.3945 39.7759 56.2216 39.8914 55.1557 40.333C54.0898 40.7745 53.1788 41.5221 52.5378 42.4814C51.8968 43.4407 51.5547 44.5685 51.5547 45.7223C51.5547 47.2693 52.1693 48.7531 53.2632 49.847C54.3572 50.941 55.8409 51.5556 57.388 51.5556ZM57.388 43.7778C57.7726 43.7778 58.1485 43.8918 58.4683 44.1055C58.7881 44.3192 59.0373 44.6228 59.1844 44.9781C59.3316 45.3334 59.3701 45.7244 59.2951 46.1016C59.2201 46.4788 59.0349 46.8252 58.7629 47.0972C58.491 47.3691 58.1445 47.5543 57.7674 47.6293C57.3902 47.7044 56.9992 47.6659 56.6439 47.5187C56.2886 47.3715 55.9849 47.1223 55.7713 46.8025C55.5576 46.4828 55.4436 46.1068 55.4436 45.7223C55.4436 45.2066 55.6484 44.712 56.0131 44.3473C56.3777 43.9827 56.8723 43.7778 57.388 43.7778Z" fill="#30C983" stroke="white" stroke-width="2"/>
</svg>
