<svg width="21" height="21" viewBox="0 0 21 21" fill="none" xmlns="http://www.w3.org/2000/svg">
<path fill-rule="evenodd" clip-rule="evenodd" d="M10.125 4.26838C8.57173 4.26838 7.08208 4.88542 5.98375 5.98375C4.88542 7.08208 4.26838 8.57173 4.26838 10.125V10.1701H4.3135C5.07219 10.1701 5.7998 10.4715 6.33627 11.008C6.87274 11.5445 7.17413 12.2721 7.17413 13.0307V17.3894C7.17413 18.1481 6.87274 18.8757 6.33627 19.4121C5.7998 19.9486 5.07219 20.25 4.3135 20.25H2.86063C2.10194 20.25 1.37433 19.9486 0.837859 19.4121C0.301387 18.8757 0 18.1481 0 17.3894V10.125C0 8.79537 0.261891 7.47875 0.77072 6.25033C1.27955 5.02191 2.02535 3.90574 2.96554 2.96554C3.90574 2.02535 5.02191 1.27955 6.25033 0.77072C7.47875 0.261891 8.79537 0 10.125 0C11.4546 0 12.7712 0.261891 13.9997 0.77072C15.2281 1.27955 16.3443 2.02535 17.2845 2.96554C18.2247 3.90574 18.9705 5.02191 19.4793 6.25033C19.9881 7.47875 20.25 8.79537 20.25 10.125V17.3894C20.25 18.1481 19.9486 18.8757 19.4121 19.4121C18.8757 19.9486 18.1481 20.25 17.3894 20.25H15.9365C15.1778 20.25 14.4502 19.9486 13.9137 19.4121C13.3773 18.8757 13.0759 18.1481 13.0759 17.3894V13.0307C13.0759 12.2721 13.3773 11.5445 13.9137 11.008C14.4502 10.4715 15.1778 10.1701 15.9365 10.1701H15.9816V10.125C15.9816 8.57173 15.3646 7.08208 14.2663 5.98375C13.1679 4.88542 11.6783 4.26838 10.125 4.26838ZM17.3894 10.125C17.3894 8.19837 16.624 6.35065 15.2617 4.98831C13.8994 3.62598 12.0516 2.86063 10.125 2.86063C8.19837 2.86063 6.35065 3.62598 4.98831 4.98831C3.62598 6.35065 2.86063 8.19837 2.86063 10.125V11.5779H4.3135C4.69883 11.5779 5.06837 11.7309 5.34084 12.0034C5.61331 12.2759 5.76638 12.6454 5.76638 13.0307V17.3894C5.76638 17.7747 5.61331 18.1442 5.34084 18.4167C5.06837 18.6892 4.69883 18.8422 4.3135 18.8422H2.86063C2.4753 18.8422 2.10576 18.6892 1.83329 18.4167C1.56082 18.1442 1.40775 17.7747 1.40775 17.3894V10.125C1.40775 8.98024 1.63323 7.84668 2.07131 6.78905C2.5094 5.73143 3.1515 4.77045 3.96098 3.96098C4.77045 3.1515 5.73143 2.5094 6.78905 2.07132C7.84668 1.63323 8.98024 1.40775 10.125 1.40775C11.2698 1.40775 12.4033 1.63323 13.4609 2.07132C14.5186 2.5094 15.4796 3.1515 16.289 3.96098C17.0985 4.77045 17.7406 5.73143 18.1787 6.78905C18.6168 7.84668 18.8422 8.98024 18.8422 10.125V17.3894C18.8422 17.7747 18.6892 18.1442 18.4167 18.4167C18.1442 18.6892 17.7747 18.8422 17.3894 18.8422H15.9365C15.5512 18.8422 15.1816 18.6892 14.9092 18.4167C14.6367 18.1442 14.4836 17.7747 14.4836 17.3894V13.0307C14.4836 12.6454 14.6367 12.2759 14.9092 12.0034C15.1816 11.7309 15.5512 11.5779 15.9365 11.5779H17.3894V10.125Z" fill="#30C983"/>
</svg>
