<svg width="72" height="72" viewBox="0 0 72 72" fill="none" xmlns="http://www.w3.org/2000/svg">
<path d="M69.0556 43.7778H57.7467L70.405 31.5667C70.5889 31.3895 70.736 31.1778 70.838 30.9437C70.9401 30.7096 70.995 30.4577 70.9997 30.2024C71.0044 29.9471 70.9588 29.6934 70.8654 29.4557C70.772 29.218 70.6328 29.0011 70.4556 28.8172C70.2783 28.6334 70.0667 28.4862 69.8326 28.3842C69.5985 28.2821 69.3466 28.2272 69.0913 28.2225C68.836 28.2178 68.5823 28.2635 68.3446 28.3568C68.1069 28.4502 67.89 28.5895 67.7061 28.7667L52.1506 43.7778H47.6667V2.94444C47.6667 2.42875 47.4618 1.93417 47.0972 1.56951C46.7325 1.20486 46.2379 1 45.7222 1H2.94444C2.42875 1 1.93417 1.20486 1.56951 1.56951C1.20486 1.93417 1 2.42875 1 2.94444V69.0556C1 69.5713 1.20486 70.0658 1.56951 70.4305C1.93417 70.7951 2.42875 71 2.94444 71H61.2778C61.7935 71 62.2881 70.7951 62.6527 70.4305C63.0174 70.0658 63.2222 69.5713 63.2222 69.0556C63.2222 68.5399 63.0174 68.0453 62.6527 67.6806C62.2881 67.316 61.7935 67.1111 61.2778 67.1111H59.1311C62.7593 64.8433 65.7519 61.6908 67.828 57.9496C69.904 54.2083 70.9955 50.0009 71 45.7222C71 45.2065 70.7951 44.7119 70.4305 44.3473C70.0658 43.9826 69.5713 43.7778 69.0556 43.7778ZM22.3889 43.7778C21.8732 43.7778 21.3786 43.9826 21.014 44.3473C20.6493 44.7119 20.4444 45.2065 20.4444 45.7222C20.4421 50.5502 21.8329 55.2762 24.45 59.3333L4.88889 55.7672V24.7222L43.7778 31.7922V43.7778H22.3889ZM43.7778 4.88889V27.8333L4.88889 20.7672V4.88889H43.7778ZM4.88889 67.1111V59.7222L28.2767 63.9728C29.5138 65.1513 30.8662 66.2027 32.3133 67.1111H4.88889ZM45.7222 67.1111C40.3879 67.1039 35.2482 65.107 31.3083 61.5108C27.3684 57.9147 24.9117 52.9782 24.4189 47.6667H67.0256C66.5327 52.9782 64.0761 57.9147 60.1362 61.5108C56.1963 65.107 51.0565 67.1039 45.7222 67.1111Z" fill="#30C983" stroke="white" stroke-width="2"/>
<path d="M22.3898 12.6666H37.9453C38.461 12.6666 38.9556 12.4617 39.3202 12.0971C39.6849 11.7324 39.8898 11.2379 39.8898 10.7222C39.8898 10.2065 39.6849 9.71188 39.3202 9.34722C38.9556 8.98257 38.461 8.77771 37.9453 8.77771H22.3898C21.8741 8.77771 21.3795 8.98257 21.0148 9.34722C20.6502 9.71188 20.4453 10.2065 20.4453 10.7222C20.4453 11.2379 20.6502 11.7324 21.0148 12.0971C21.3795 12.4617 21.8741 12.6666 22.3898 12.6666Z" fill="#30C983" stroke="white" stroke-width="2"/>
<path d="M37.9449 16.5555H30.1671C29.6514 16.5555 29.1568 16.7604 28.7922 17.1251C28.4275 17.4897 28.2227 17.9843 28.2227 18.5C28.2227 19.0157 28.4275 19.5103 28.7922 19.8749C29.1568 20.2396 29.6514 20.4444 30.1671 20.4444H37.9449C38.4606 20.4444 38.9552 20.2396 39.3198 19.8749C39.6845 19.5103 39.8893 19.0157 39.8893 18.5C39.8893 17.9843 39.6845 17.4897 39.3198 17.1251C38.9552 16.7604 38.4606 16.5555 37.9449 16.5555Z" fill="#30C983" stroke="white" stroke-width="2"/>
</svg>
