<svg width="138" height="45" viewBox="0 0 138 45" fill="none" xmlns="http://www.w3.org/2000/svg">
<path d="M59.6786 10.8281C52.7899 2.90066 42.2615 11.6227 54.6277 25.8502C73.0175 22.1571 69.926 8.77032 59.6786 10.8281Z" fill="#F00234"/>
<path d="M59.8959 10.1804C59.8959 10.1804 62.6187 3.19633 59.3477 0L58.5684 0.675875C58.5684 0.675875 61.2194 3.44173 59.4693 10.0355L59.8959 10.1804Z" fill="#7DAF2C"/>
<path d="M57.8382 4.96041C56.7837 4.5923 55.7014 4.29258 54.5951 4.08942C55.7173 4.16787 56.8356 4.34689 57.9418 4.59834C58.3803 4.6969 58.8149 4.81759 59.2474 4.94633C58.5518 4.05924 56.6283 2.24484 53.459 3.9466C53.459 3.9466 55.5499 7.83891 59.2953 5.5337C58.8169 5.32651 58.3325 5.13139 57.8382 4.96041Z" fill="#7DAF2C"/>
<path d="M61.0801 8.20707C61.4807 8.01598 61.8893 7.845 62.3099 7.7062C63.0733 7.44873 63.8507 7.23953 64.638 7.11079C65.4234 6.974 66.2167 6.88952 67.008 6.85532C67.7994 6.82314 68.5927 6.8332 69.38 6.91165C68.5907 6.89555 67.8033 6.94987 67.024 7.0424C66.2446 7.13895 65.4732 7.28378 64.7158 7.4789C63.9583 7.66597 63.2208 7.92747 62.5112 8.23322C62.0707 8.41829 61.6502 8.64157 61.2415 8.88295C66.1848 11.7675 70.1135 6.66624 70.1135 6.66624C64.5802 4.00096 61.8694 7.04038 61.0801 8.20707Z" fill="#7DAF2C"/>
<path d="M42.9615 12.8271C48.8066 6.10243 57.7376 13.5008 47.2464 25.5728C31.6445 22.4388 34.2679 11.0829 42.9615 12.8271Z" fill="#CDE353"/>
<path d="M42.7783 12.2782C42.7783 12.2782 40.4689 6.35197 43.2432 3.63965L43.9058 4.21355C43.9058 4.21355 41.6558 6.55908 43.1418 12.1534L42.7783 12.2782Z" fill="#7DAF2C"/>
<path d="M44.5248 7.84911C45.4174 7.53721 46.3372 7.2827 47.2768 7.11052C46.3249 7.1779 45.3754 7.32761 44.4383 7.5422C44.0674 7.62704 43.6965 7.72685 43.3306 7.83913C43.9215 7.08807 45.5534 5.5485 48.2411 6.99075C48.2411 6.99075 46.4658 10.2944 43.291 8.33568C43.694 8.15852 44.1045 7.99384 44.5248 7.84911Z" fill="#7DAF2C"/>
<path d="M41.7743 10.6039C41.4331 10.4417 41.087 10.297 40.7309 10.1797C40.0831 9.96014 39.4254 9.78548 38.7553 9.67569C38.0877 9.56091 37.4177 9.48605 36.7451 9.4586C36.0726 9.43115 35.4001 9.44113 34.7325 9.50601C35.4025 9.49353 36.0701 9.53845 36.7303 9.6158C37.393 9.69814 38.0457 9.82041 38.6886 9.9851C39.3314 10.1448 39.957 10.3669 40.5603 10.6239C40.9337 10.7811 41.2922 10.9707 41.6359 11.1753C37.4424 13.6232 34.1094 9.29392 34.1094 9.29392C38.8048 7.03572 41.1043 9.61331 41.7743 10.6039Z" fill="#7DAF2C"/>
<path d="M14.9542 14.0873C13.8671 12.7343 12.7106 11.4148 11.5118 10.1288C10.3131 8.84896 9.072 7.59957 7.77054 6.40503C9.24714 7.37102 10.6784 8.41319 12.0826 9.49803C13.4806 10.5829 14.8546 11.7165 16.1862 12.911C16.7177 13.3955 17.2401 13.8922 17.7564 14.3981C17.0981 3.58932 5.11328 3.95805 5.11328 3.95805C5.99199 13.5235 12.6593 16.0436 15.9537 16.263C16.1923 16.2783 16.4097 16.2813 16.609 16.2752C16.0745 15.5378 15.5249 14.8064 14.9542 14.0873Z" fill="#C9DA66"/>
<path d="M120.105 26.6482C120.105 27.3082 120.061 27.9022 119.973 28.4302H106.608C106.718 29.7502 107.18 30.7842 107.994 31.5322C108.808 32.2802 109.809 32.6542 110.997 32.6542C112.713 32.6542 113.934 31.9172 114.66 30.4432H119.643C119.115 32.2032 118.103 33.6552 116.607 34.7992C115.111 35.9212 113.274 36.4822 111.096 36.4822C109.336 36.4822 107.752 36.0972 106.344 35.3272C104.958 34.5352 103.869 33.4242 103.077 31.9942C102.307 30.5642 101.922 28.9142 101.922 27.0442C101.922 25.1522 102.307 23.4912 103.077 22.0612C103.847 20.6312 104.925 19.5312 106.311 18.7612C107.697 17.9912 109.292 17.6062 111.096 17.6062C112.834 17.6062 114.385 17.9802 115.749 18.7282C117.135 19.4762 118.202 20.5432 118.95 21.9292C119.72 23.2932 120.105 24.8662 120.105 26.6482ZM115.32 25.3282C115.298 24.1402 114.869 23.1942 114.033 22.4902C113.197 21.7642 112.174 21.4012 110.964 21.4012C109.82 21.4012 108.852 21.7532 108.06 22.4572C107.29 23.1392 106.817 24.0962 106.641 25.3282H115.32Z" fill="#30C983"/>
<path d="M132.585 36.1852L128.823 30.5092L125.49 36.1852H120.54L126.513 27.0112L120.474 17.9032H125.688L129.417 23.5462L132.783 17.9032H137.733L131.727 27.0112L137.799 36.1852H132.585Z" fill="#30C983"/>
<path d="M57.8633 16.7525C63.9633 15.1525 67.9049 17.9191 69.1133 19.5025C67.5716 22.8775 64.3133 29.6275 63.6133 29.6275C62.9133 29.6275 40.9049 32.5441 29.9883 34.0025C30.1133 30.9608 31.0383 23.9525 33.7383 20.2525C36.4383 16.5525 41.2799 16.3775 43.3633 16.7525C49.0633 16.7525 51.4883 21.7525 51.9883 24.2525C52.5883 19.7525 56.1549 17.3775 57.8633 16.7525Z" fill="white"/>
<path d="M8.58 17.5645C10.142 17.5645 11.506 17.9055 12.672 18.5875C13.86 19.2695 14.74 20.1275 15.312 21.1615V17.8615H18.348V36.3415C18.348 37.9915 17.996 39.4545 17.292 40.7305C16.588 42.0285 15.576 43.0405 14.256 43.7665C12.958 44.4925 11.44 44.8555 9.702 44.8555C7.326 44.8555 5.346 44.2945 3.762 43.1725C2.178 42.0505 1.243 40.5215 0.957 38.5855H3.927C4.257 39.6855 4.939 40.5655 5.973 41.2255C7.007 41.9075 8.25 42.2485 9.702 42.2485C11.352 42.2485 12.694 41.7315 13.728 40.6975C14.784 39.6635 15.312 38.2115 15.312 36.3415V32.5465C14.718 33.6025 13.838 34.4825 12.672 35.1865C11.506 35.8905 10.142 36.2425 8.58 36.2425C6.974 36.2425 5.511 35.8465 4.191 35.0545C2.893 34.2625 1.87 33.1515 1.122 31.7215C0.374 30.2915 0 28.6635 0 26.8375C0 24.9895 0.374 23.3725 1.122 21.9865C1.87 20.5785 2.893 19.4895 4.191 18.7195C5.511 17.9495 6.974 17.5645 8.58 17.5645ZM15.312 26.8705C15.312 25.5065 15.037 24.3185 14.487 23.3065C13.937 22.2945 13.189 21.5245 12.243 20.9965C11.319 20.4465 10.296 20.1715 9.174 20.1715C8.052 20.1715 7.029 20.4355 6.105 20.9635C5.181 21.4915 4.444 22.2615 3.894 23.2735C3.344 24.2855 3.069 25.4735 3.069 26.8375C3.069 28.2235 3.344 29.4335 3.894 30.4675C4.444 31.4795 5.181 32.2605 6.105 32.8105C7.029 33.3385 8.052 33.6025 9.174 33.6025C10.296 33.6025 11.319 33.3385 12.243 32.8105C13.189 32.2605 13.937 31.4795 14.487 30.4675C15.037 29.4335 15.312 28.2345 15.312 26.8705Z" fill="#FF8227"/>
<path d="M25.4358 20.7985C25.9638 19.7645 26.7118 18.9615 27.6798 18.3895C28.6698 17.8175 29.8688 17.5315 31.2768 17.5315V20.6335H30.4848C27.1188 20.6335 25.4358 22.4595 25.4358 26.1115V35.9455H22.4328V17.8615H25.4358V20.7985Z" fill="#FF8227"/>
<path d="M41.6403 36.2425C39.9463 36.2425 38.4063 35.8575 37.0203 35.0875C35.6563 34.3175 34.5783 33.2285 33.7863 31.8205C33.0163 30.3905 32.6313 28.7405 32.6313 26.8705C32.6313 25.0225 33.0273 23.3945 33.8193 21.9865C34.6333 20.5565 35.7333 19.4675 37.1193 18.7195C38.5053 17.9495 40.0563 17.5645 41.7723 17.5645C43.4883 17.5645 45.0393 17.9495 46.4253 18.7195C47.8113 19.4675 48.9003 20.5455 49.6923 21.9535C50.5063 23.3615 50.9133 25.0005 50.9133 26.8705C50.9133 28.7405 50.4953 30.3905 49.6593 31.8205C48.8453 33.2285 47.7343 34.3175 46.3263 35.0875C44.9183 35.8575 43.3563 36.2425 41.6403 36.2425ZM41.6403 33.6025C42.7183 33.6025 43.7303 33.3495 44.6763 32.8435C45.6223 32.3375 46.3813 31.5785 46.9533 30.5665C47.5473 29.5545 47.8443 28.3225 47.8443 26.8705C47.8443 25.4185 47.5583 24.1865 46.9863 23.1745C46.4143 22.1625 45.6663 21.4145 44.7423 20.9305C43.8183 20.4245 42.8173 20.1715 41.7393 20.1715C40.6393 20.1715 39.6273 20.4245 38.7033 20.9305C37.8013 21.4145 37.0753 22.1625 36.5253 23.1745C35.9753 24.1865 35.7003 25.4185 35.7003 26.8705C35.7003 28.3445 35.9643 29.5875 36.4923 30.5995C37.0423 31.6115 37.7683 32.3705 38.6703 32.8765C39.5723 33.3605 40.5623 33.6025 41.6403 33.6025Z" fill="#FF8227"/>
<path d="M52.7497 26.8705C52.7497 25.0005 53.1237 23.3725 53.8717 21.9865C54.6197 20.5785 55.6537 19.4895 56.9737 18.7195C58.3157 17.9495 59.8447 17.5645 61.5607 17.5645C63.7827 17.5645 65.6087 18.1035 67.0387 19.1815C68.4907 20.2595 69.4477 21.7555 69.9097 23.6695H66.6757C66.3677 22.5695 65.7627 21.7005 64.8607 21.0625C63.9807 20.4245 62.8807 20.1055 61.5607 20.1055C59.8447 20.1055 58.4587 20.6995 57.4027 21.8875C56.3467 23.0535 55.8187 24.7145 55.8187 26.8705C55.8187 29.0485 56.3467 30.7315 57.4027 31.9195C58.4587 33.1075 59.8447 33.7015 61.5607 33.7015C62.8807 33.7015 63.9807 33.3935 64.8607 32.7775C65.7407 32.1615 66.3457 31.2815 66.6757 30.1375H69.9097C69.4257 31.9855 68.4577 33.4705 67.0057 34.5925C65.5537 35.6925 63.7387 36.2425 61.5607 36.2425C59.8447 36.2425 58.3157 35.8575 56.9737 35.0875C55.6537 34.3175 54.6197 33.2285 53.8717 31.8205C53.1237 30.4125 52.7497 28.7625 52.7497 26.8705Z" fill="#FF8227"/>
<path d="M89.4267 26.2105C89.4267 26.7825 89.3937 27.3875 89.3277 28.0255H74.8736C74.9837 29.8075 75.5887 31.2045 76.6887 32.2165C77.8107 33.2065 79.1637 33.7015 80.7477 33.7015C82.0457 33.7015 83.1236 33.4045 83.9817 32.8105C84.8616 32.1945 85.4777 31.3805 85.8297 30.3685H89.0637C88.5797 32.1065 87.6117 33.5255 86.1597 34.6255C84.7077 35.7035 82.9036 36.2425 80.7477 36.2425C79.0316 36.2425 77.4916 35.8575 76.1276 35.0875C74.7856 34.3175 73.7296 33.2285 72.9596 31.8205C72.1897 30.3905 71.8046 28.7405 71.8046 26.8705C71.8046 25.0005 72.1786 23.3615 72.9267 21.9535C73.6747 20.5455 74.7197 19.4675 76.0617 18.7195C77.4257 17.9495 78.9876 17.5645 80.7477 17.5645C82.4637 17.5645 83.9817 17.9385 85.3017 18.6865C86.6217 19.4345 87.6337 20.4685 88.3377 21.7885C89.0637 23.0865 89.4267 24.5605 89.4267 26.2105ZM86.3247 25.5835C86.3247 24.4395 86.0716 23.4605 85.5657 22.6465C85.0597 21.8105 84.3666 21.1835 83.4866 20.7655C82.6286 20.3255 81.6717 20.1055 80.6157 20.1055C79.0977 20.1055 77.7997 20.5895 76.7216 21.5575C75.6656 22.5255 75.0607 23.8675 74.9067 25.5835H86.3247Z" fill="#FF8227"/>
<path d="M95.4035 20.7985C95.9315 19.7645 96.6795 18.9615 97.6475 18.3895C98.6375 17.8175 99.8365 17.5315 101.245 17.5315V20.6335H100.453C97.0865 20.6335 95.4035 22.4595 95.4035 26.1115V35.9455H92.4005V17.8615H95.4035V20.7985Z" fill="#FF8227"/>
</svg>
