<svg width="12" height="18" viewBox="0 0 12 18" fill="none" xmlns="http://www.w3.org/2000/svg">
<path d="M3.90458 6.00775C3.79502 5.43893 3.9102 5.33415 3.9102 5.33415L5.42432 4.45348C5.82041 4.24142 5.97772 3.80233 5.79794 3.42561L4.62934 0.970698C4.45798 0.613938 4.01694 0.424331 3.59558 0.526619L2.46912 0.803544C2.37361 0.828493 2.27809 0.860925 2.19101 0.908327C-0.460808 2.38776 0.390361 6.54414 2.12359 10.1816C3.80907 13.7218 6.62382 17.3542 9.68015 16.5983C9.76723 16.5758 9.8487 16.5434 9.92736 16.5035L10.9527 15.9721C11.3291 15.775 11.4864 15.3609 11.3151 15.0041L10.1465 12.5517C9.96668 12.175 9.50318 11.9704 9.05372 12.0752L7.28677 12.4269C7.28677 12.4269 6.65472 12.4045 5.07037 9.07639C4.50573 7.88885 4.19392 7.07304 4.02818 6.5142C3.97481 6.31462 3.93267 6.14746 3.90458 6.00775Z" stroke="#30C983" stroke-miterlimit="10" stroke-linecap="square"/>
</svg>
