<svg width="76" height="72" viewBox="0 0 76 72" fill="none" xmlns="http://www.w3.org/2000/svg">
<path d="M74.8306 22.0894C74.8253 21.9836 74.8123 21.8784 74.7917 21.7744L71 10.4033V2.94444C71 2.42875 70.7951 1.93417 70.4305 1.56951C70.0658 1.20486 69.5713 1 69.0555 1H41.8333C41.3176 1 40.8231 1.20486 40.4584 1.56951C40.0937 1.93417 39.8889 2.42875 39.8889 2.94444V10.4072L36.1011 21.7744C36.0973 21.8418 36.0973 21.9093 36.1011 21.9767C36.0513 22.1096 36.0173 22.248 36 22.3889V32.7956L15.0311 24.4733C14.7416 24.3583 14.4287 24.3145 14.1187 24.3456C13.8088 24.3768 13.5108 24.4819 13.25 24.6522C9.87572 26.867 6.90355 29.6406 4.46111 32.8539C2.64122 35.4854 1.45648 38.5032 1 41.67C1 41.6972 1 41.7206 1 41.7478C1 41.775 1 41.8022 1 41.8333V69.0556C1 69.5713 1.20486 70.0658 1.56951 70.4305C1.93417 70.7951 2.42875 71 2.94444 71H72.9444C73.4601 71 73.9547 70.7951 74.3194 70.4305C74.684 70.0658 74.8889 69.5713 74.8889 69.0556V22.3889C74.8773 22.2877 74.8578 22.1876 74.8306 22.0894ZM43.7778 4.88889H67.1111V8.77778H43.7778V4.88889ZM39.8889 34.0556V24.3333H57.8478C58.3635 24.3333 58.8581 24.1285 59.2227 23.7638C59.5874 23.3992 59.7922 22.9046 59.7922 22.3889C59.7922 21.8732 59.5874 21.3786 59.2227 21.014C58.8581 20.6493 58.3635 20.4444 57.8478 20.4444H40.6433L43.2333 12.6667H67.6555L71 22.7078V36H44.12H44.0889L39.8344 34.3083C39.8599 34.2258 39.8782 34.1412 39.8889 34.0556ZM71 51.5556H55.4444V41.8333C55.4337 41.6515 55.3971 41.472 55.3356 41.3006C55.326 41.2281 55.3104 41.1565 55.2889 41.0867C55.2311 40.9786 55.162 40.8769 55.0828 40.7833C55.0242 40.6736 54.9537 40.5706 54.8728 40.4761C54.8159 40.4289 54.7547 40.3873 54.69 40.3517C54.5549 40.2316 54.4029 40.132 54.2389 40.0561L53.8889 39.8889H71V51.5556ZM7.70833 34.9967C9.62769 32.4667 11.9428 30.2632 14.5644 28.4711L43.3306 39.8889H5.36722C5.91493 38.1567 6.70298 36.5099 7.70833 34.9967ZM20.4444 47.6667C20.4444 48.4358 20.2164 49.1877 19.789 49.8272C19.3617 50.4667 18.7544 50.9652 18.0438 51.2595C17.3332 51.5539 16.5512 51.6309 15.7969 51.4808C15.0425 51.3308 14.3496 50.9604 13.8057 50.4165C13.2618 49.8727 12.8914 49.1797 12.7414 48.4254C12.5913 47.671 12.6683 46.8891 12.9627 46.1785C13.257 45.4678 13.7555 44.8605 14.395 44.4332C15.0345 44.0059 15.7864 43.7778 16.5556 43.7778C17.587 43.7778 18.5761 44.1875 19.3054 44.9168C20.0347 45.6461 20.4444 46.6353 20.4444 47.6667ZM4.88889 43.7778H9.85889C9.15877 44.9547 8.78555 46.2972 8.77778 47.6667C8.77778 49.7295 9.59722 51.7078 11.0558 53.1664C12.5145 54.625 14.4928 55.4444 16.5556 55.4444C18.6183 55.4444 20.5967 54.625 22.0553 53.1664C23.5139 51.7078 24.3333 49.7295 24.3333 47.6667C24.3256 46.2972 23.9523 44.9547 23.2522 43.7778H51.5556V48.7478C50.3786 48.0477 49.0361 47.6744 47.6667 47.6667C45.6039 47.6667 43.6256 48.4861 42.1669 49.9447C40.7083 51.4033 39.8889 53.3816 39.8889 55.4444C39.8889 57.5072 40.7083 59.4855 42.1669 60.9442C43.6256 62.4028 45.6039 63.2222 47.6667 63.2222C49.0361 63.2144 50.3786 62.8412 51.5556 62.1411V67.1111H31.7533C31.9836 66.4884 32.1047 65.8306 32.1111 65.1667C32.1111 63.6196 31.4965 62.1358 30.4026 61.0419C29.3086 59.9479 27.8249 59.3333 26.2778 59.3333C24.7307 59.3333 23.2469 59.9479 22.153 61.0419C21.059 62.1358 20.4444 63.6196 20.4444 65.1667C20.4509 65.8306 20.5719 66.4884 20.8022 67.1111H4.88889V43.7778ZM51.5556 55.4444C51.5556 56.2136 51.3275 56.9655 50.9002 57.605C50.4728 58.2445 49.8655 58.743 49.1549 59.0373C48.4443 59.3316 47.6623 59.4087 46.908 59.2586C46.1536 59.1086 45.4607 58.7382 44.9168 58.1943C44.3729 57.6504 44.0026 56.9575 43.8525 56.2031C43.7024 55.4488 43.7795 54.6668 44.0738 53.9562C44.3681 53.2456 44.8666 52.6383 45.5061 52.2109C46.1456 51.7836 46.8975 51.5556 47.6667 51.5556C48.6981 51.5556 49.6872 51.9653 50.4165 52.6946C51.1458 53.4239 51.5556 54.413 51.5556 55.4444ZM24.3333 65.1667C24.3333 64.7821 24.4474 64.4062 24.661 64.0864C24.8747 63.7666 25.1784 63.5174 25.5337 63.3702C25.889 63.2231 26.2799 63.1846 26.6571 63.2596C27.0343 63.3346 27.3808 63.5198 27.6527 63.7917C27.9246 64.0637 28.1098 64.4101 28.1849 64.7873C28.2599 65.1645 28.2214 65.5555 28.0742 65.9108C27.927 66.2661 27.6778 66.5698 27.3581 66.7834C27.0383 66.9971 26.6623 67.1111 26.2778 67.1111C25.7621 67.1111 25.2675 66.9062 24.9028 66.5416C24.5382 66.1769 24.3333 65.6824 24.3333 65.1667ZM55.4444 67.1111V55.4444H71V67.1111H55.4444Z" fill="#30C983" stroke="white" stroke-width="2"/>
</svg>
