<svg width="20" height="16" viewBox="0 0 20 16" fill="none" xmlns="http://www.w3.org/2000/svg">
<path d="M5.98646 15.6482C13.1792 15.8418 17.2743 9.98783 17.4132 4.82852C17.4176 4.66175 17.4222 4.49259 17.4195 4.32562C18.2005 3.79169 18.8801 3.12293 19.4266 2.35066C18.7025 2.6469 17.9386 2.83444 17.1597 2.90717C17.9907 2.44033 18.6239 1.68766 18.9417 0.789055C18.161 1.22358 17.3115 1.5205 16.4301 1.66681C15.8576 1.02319 15.0887 0.586325 14.2428 0.423891C13.3968 0.261456 12.5208 0.382516 11.7506 0.768318C10.9804 1.15412 10.3589 1.78313 9.98237 2.55792C9.60585 3.33272 9.49531 4.21005 9.66789 5.05402C8.1151 4.93421 6.60484 4.48934 5.23505 3.74827C3.86526 3.00719 2.66654 1.98647 1.71663 0.752287C1.19472 1.60024 1.0151 2.61504 1.21424 3.59062C1.41338 4.5662 1.97636 5.42941 2.78885 6.00498C2.16942 5.96723 1.56753 5.78443 1.03173 5.47131L1.03029 5.52492C1.00707 6.42729 1.29614 7.31001 1.84863 8.02386C2.40111 8.73771 3.18313 9.23891 4.06249 9.44274C3.72439 9.52616 3.37645 9.56292 3.02838 9.552C2.78294 9.54614 2.53863 9.51681 2.29878 9.46441C2.52778 10.2479 2.99611 10.9401 3.63818 11.4442C4.28025 11.9482 5.06389 12.2388 5.87934 12.2752C4.4641 13.3265 2.7362 13.8708 0.973939 13.8205C0.663369 13.8135 0.353533 13.7872 0.0462062 13.7419C1.8042 14.9304 3.86518 15.5918 5.98646 15.6482Z" fill="#252525"/>
</svg>
